Genre:Horror | Thriller 
Language:English
IMDb:http://www.imdb.com/title/tt1391034/
Source:BluRay.x264-Japhson


Format : Matroska
File size : 1.60 GiB
Duration : 1h 31mn
Overall bit rate : 2 512 Kbps


Video
Format settings, CABAC : Yes
Format settings, ReFrames : 4 frames
Codec ID : V_MPEG4/ISO/AVC
Duration : 1h 31mn
Bit rate : 2 078 Kbps
Nominal bit rate : 2 200 Kbps
Width : 1 280 pixels
Height : 528 pixels
Display aspect ratio : 2.40:1
Frame rate mode : Variable
Frame rate : 23.976 fps
Color space : YUV
Chroma subsampling : 4:2:0
Bit depth : 8 bits
Scan type : Progressive
Bits/(Pixel*Frame) : 0.128
Stream size : 1.33 GiB (83%)
Writing library : x264


Audio
ID : 2
Format : AC-3
Format/Info : Audio Coding 3
Mode extension : CM (complete main)
Codec ID : A_AC3
Duration : 1h 31mn
Bit rate mode : Constant
Bit rate : 384 Kbps
Channel(s) : 6 channels
Channel positions : Front: L C R, Side: L R, LFE
Sampling rate : 48.0 KHz
Bit depth : 16 bits
Video delay : -1mn 5s
Stream size : 251 MiB (15%)
Language : English



Plot:
When two American girls on a bike trip in a remote part of Argentina split up and one of them goes missing, the other must find her before her worst fears are realized








================================== 
http://thepiratebay.org/user/hiest
==================================








Screen Shots:
 
http://rapidhdd.com/images/206482vlcsnap-2010-12-20-09h29m41s37.png
 
http://www.rapidhdd.com/images/69092vlcsnap-2010-12-20-09h30m39s107.png
 
http://www.rapidhdd.com/images/603719vlcsnap-2010-12-20-09h31m27s77.png
 
http://www.rapidhdd.com/images/825527vlcsnap-2010-12-20-09h30m03s248.png
 
http://www.rapidhdd.com/images/813527vlcsnap-2010-12-20-09h32m02s171.png

